<svg xmlns="http://www.w3.org/2000/svg" viewBox="0 0 42.39 50"><title>Asset 71</title><g id="Layer_2" data-name="Layer 2"><g id="Layer_1-2" data-name="Layer 1"><path class="cls-1" d="M35.65,44V20.27a.61.61,0,0,0-.61-.61.59.59,0,0,0-.44.2H10.67a.61.61,0,0,0-1.06.41V42.19c-1.37-.9-3.64-.92-5.8.09C1,43.62-.65,46.27.25,48.19s4,2.39,6.82,1.05C9.62,48,11.16,45.81,10.83,44V24.73H34.44V42.19c-1.37-.9-3.64-.92-5.81.09-2.86,1.34-4.45,4-3.56,5.91s3.95,2.39,6.82,1.05C34.44,48,36,45.81,35.65,44Z"/><polygon class="cls-1" points="42.39 6.43 27.4 0 27.4 3.01 38.41 7.7 27.4 12.4 27.4 15.41 42.39 8.97 42.39 6.43"/></g></g></svg>