<svg xmlns="http://www.w3.org/2000/svg" xmlns:xlink="http://www.w3.org/1999/xlink" width="75px" height="68px" viewBox="0 0 75 68" version="1.1">
    <!-- Generator: Sketch 52.6 (67491) - http://www.bohemiancoding.com/sketch -->
    <title>buzz</title>
    <desc>Created with Sketch.</desc>
    <g id="Page-1" stroke="none" stroke-width="1">
        <g id="buzz">
            <g id="diddle" stroke-width="1">
                <g>
                    <path d="M60.2678571,31.7322085 L74.3705357,23.9996061 L72.4419643,20.3847164 L60.2678571,26.9893645 L60.2678571,1.04641544 C60.2714326,0.772486096 60.1676086,0.508337399 59.97923,0.312091228 C59.7908514,0.115845058 59.5333528,0.00358062485 59.2633929,-1.77524807e-15 C58.9745992,0.00127159076 58.7007175,0.130300962 58.5133929,0.353335084 L18.0401786,0.353335084 C17.8487007,0.128188564 17.5698648,-0.000870143079 17.2767857,-1.66209125e-15 C17.0044967,-2.39184066e-05 16.7435502,0.110654839 16.5522752,0.307296436 C16.3610003,0.503938034 16.2553458,0.770146044 16.2589286,1.04641544 L16.2589286,54.5359112 C13.9419643,53.0002626 10.0982143,53.0002626 6.44196429,54.7125788 C1.60714286,57.0772059 -1.09821429,61.5346639 0.428571429,64.8369879 C1.95535714,68.139312 7.125,68.9139312 11.9464286,66.6444328 C16.2723214,64.5923713 18.8705357,60.7600446 18.3080357,57.6072085 L18.3080357,8.69747899 L58.2455357,8.69747899 L58.2455357,28.1173188 L37.2723214,39.600709 L39.2142857,43.269958 L58.2455357,32.8601628 L58.2455357,54.6038603 C55.9285714,53.0682117 52.0848214,53.041032 48.4285714,54.7805278 C43.5803571,57.0772059 40.8883929,61.5754333 42.4017857,64.904937 C43.9151786,68.2344407 49.0982143,68.9818803 53.9330357,66.7123818 C58.2589286,64.6603204 60.8571429,60.8279937 60.2946429,57.6887474 L60.2678571,31.7322085 Z" id="Path"/>
                </g>
            </g>
            <path d="M72.3214286,22.423188 L39.5089286,22.423188" id="Line" stroke="#979797" stroke-width="4.01785714" stroke-linecap="square"/>
            <path d="M72.3214286,41.4489233 L39.5089286,41.4489233" id="Line" stroke="#979797" stroke-width="4.01785714" stroke-linecap="square"/>
        </g>
    </g>
</svg>