<svg xmlns="http://www.w3.org/2000/svg" viewBox="0 0 47.58 50"><title>Asset 73</title><g id="Layer_2" data-name="Layer 2"><g id="Layer_1-2" data-name="Layer 1"><path class="cls-1" d="M31.48,22.2l3.05-3.54a9.13,9.13,0,0,1,2.63,2.27,14,14,0,0,1,2.08,4.53,16.91,16.91,0,0,1,.34,4.4,4.53,4.53,0,0,0,0,1.89,29.71,29.71,0,0,0,1-4.62c.43-2.52.09-5.91-.77-7.53a10.39,10.39,0,0,0-3.17-3.38L39,13.5l-.75-.65-2.47,2.87-.32-.15a7.58,7.58,0,0,1-3.84-3.66c0-.08-.07-.16-.1-.23v-.42a.6.6,0,0,0-1.2,0v10.8l-3.46,4,.76.66,2.7-3.15v9.26c-1.35-.88-3.58-.9-5.71.1-2.82,1.32-4.4,3.92-3.51,5.81s3.89,2.36,6.71,1c2.52-1.18,4-3.38,3.71-5.18Zm0-4.59,2.09.63-2.09,2.43Z"/><path class="cls-1" d="M47.52,42.4V.77A.76.76,0,0,0,46.75,0a.74.74,0,0,0-.56.26H13.47A.75.75,0,0,0,12.9,0a.76.76,0,0,0-.76.77V40.13C10.41,39,7.54,39,4.81,40.26,1.2,42-.82,45.28.32,47.71s5,3,8.6,1.33c3.23-1.51,5.17-4.33,4.75-6.65V6.4H46V40.13c-1.73-1.13-4.6-1.15-7.33.13C35,42,33,45.28,34.16,47.71s5,3,8.61,1.33C46,47.53,47.94,44.71,47.52,42.4Z"/></g></g></svg>