<?xml version="1.0" encoding="UTF-8"?>
<svg width="90px" height="52px" viewBox="0 0 90 52" version="1.1" xmlns="http://www.w3.org/2000/svg" xmlns:xlink="http://www.w3.org/1999/xlink">
    <!-- Generator: Sketch 52.6 (67491) - http://www.bohemiancoding.com/sketch -->
    <title>addMeasure</title>
    <desc>Created with Sketch.</desc>
    <g id="Page-1" stroke="none" stroke-width="1" fill="none" fill-rule="evenodd">
        <g id="addMeasure" transform="translate(3.000000, 1.000000)">
            <path d="M74.81,25.34 L85.2,25.29 L85.2,24.52 L74.77,24.57 C74.78,24.82 74.8,25.08 74.81,25.34 Z" id="Path" stroke="#E4EAEE" stroke-width="2" fill="#E4EAEE" stroke-linecap="round"></path>
            <path d="M69.16,37.52 L85.16,37.44 L85.16,36.67 L70,36.74 C69.73,37 69.45,37.27 69.16,37.52 Z" id="Path" stroke="#E4EAEE" stroke-width="2" fill="#E4EAEE" stroke-linecap="round"></path>
            <path d="M68.09,12.74 L85.2,12.66 L85.2,11.88 L66.86,12 C67.28,12.21 67.69,12.46 68.09,12.74 Z" id="Path" stroke="#E4EAEE" stroke-width="2" fill="#E4EAEE" stroke-linecap="round"></path>
            <g id="addMeasureLeft">
                <path d="M19,0.32 L19,1.09 L25.2,1.09 L25.2,12.17 L19.55,12.17 L19.55,13 L25.19,13 L25.19,24.81 L19.54,24.81 L19.54,25.59 L25.18,25.59 L25.18,37 L19.56,37 L19.56,37.77 L25.2,37.77 L25.2,49.21 L19.55,49.21 L19.55,50 L85.18,49.69 L85.18,48.92 L38.05,49.14 L38.05,37.67 L49.52,37.61 C49.22,37.37 48.94,37.11 48.65,36.84 L38.05,36.9 L38.05,25.52 L43.74,25.52 C43.74,25.26 43.74,25 43.74,24.75 L38.02,24.75 L38.02,12.88 L50.31,12.82 C50.71,12.55 51.12,12.29 51.54,12.05 L38.02,12.11 L38.02,1 L85.2,0.78 L85.2,0 L19,0.32 Z M36.26,49.15 L32.41,49.15 L32.41,37.7 L36.26,37.7 L36.26,49.15 Z M36.26,36.91 L32.41,36.91 L32.41,25.54 L36.26,25.54 L36.26,36.91 Z M36.26,24.75 L32.41,24.75 L32.41,12.91 L36.26,12.91 L36.26,24.75 Z M36.26,12.12 L32.41,12.12 L32.41,1 L36.26,1 L36.26,12.12 Z" id="Shape" stroke="#E4EAEE" stroke-width="2" fill="#E4EAEE" fill-rule="nonzero" stroke-linecap="round"></path>
                <polygon id="Path" stroke="#E4EAEE" stroke-width="0.79" fill="#E4EAEE" fill-rule="evenodd" points="56.6 13.12 56.6 21.82 47.96 21.82 47.96 27.22 56.6 27.22 56.6 35.91 62.01 35.91 62.01 27.22 70.66 27.22 70.66 21.82 62.01 21.82 62.01 13.12"></polygon>
                <path d="M14,7 L0.5,25.54" id="Line" stroke="#979797" stroke-width="4" stroke-linecap="square"></path>
                <path d="M0.5,26.54 L14,44.425" id="Line-2" stroke="#979797" stroke-width="4" stroke-linecap="square"></path>
            </g>
        </g>
    </g>
</svg>