<?xml version="1.0" encoding="UTF-8"?>
<svg width="88px" height="52px" viewBox="0 0 88 52" version="1.1" xmlns="http://www.w3.org/2000/svg" xmlns:xlink="http://www.w3.org/1999/xlink">
    <!-- Generator: Sketch 52.6 (67491) - http://www.bohemiancoding.com/sketch -->
    <title>addMeasureRight</title>
    <desc>Created with Sketch.</desc>
    <g id="Page-1">
        <g id="addMeasure" transform="translate(1.000000, 1.000000)">
            <g id="addMeasureRight">
                <path d="M55.81,25.34 L66.2,25.29 L66.2,24.52 L55.77,24.57 C55.78,24.82 55.8,25.08 55.81,25.34 Z" id="Path"  stroke-width="2"  fill-rule="evenodd" stroke-linecap="round"></path>
                <path d="M50.16,37.52 L66.16,37.44 L66.16,36.67 L51,36.74 C50.73,37 50.45,37.27 50.16,37.52 Z" id="Path"  stroke-width="2"  fill-rule="evenodd" stroke-linecap="round"></path>
                <path d="M49.09,12.74 L66.2,12.66 L66.2,11.88 L47.86,12 C48.28,12.21 48.69,12.46 49.09,12.74 Z" id="Path"  stroke-width="2"  fill-rule="evenodd" stroke-linecap="round"></path>
                <path d="M0,0.32 L0,1.09 L6.2,1.09 L6.2,12.17 L0.55,12.17 L0.55,13 L6.19,13 L6.19,24.81 L0.54,24.81 L0.54,25.59 L6.18,25.59 L6.18,37 L0.56,37 L0.56,37.77 L6.2,37.77 L6.2,49.21 L0.55,49.21 L0.55,50 L66.18,49.69 L66.18,48.92 L19.05,49.14 L19.05,37.67 L30.52,37.61 C30.22,37.37 29.94,37.11 29.65,36.84 L19.05,36.9 L19.05,25.52 L24.74,25.52 C24.74,25.26 24.74,25 24.74,24.75 L19.02,24.75 L19.02,12.88 L31.31,12.82 C31.71,12.55 32.12,12.29 32.54,12.05 L19.02,12.11 L19.02,1 L66.2,0.78 L66.2,0 L0,0.32 Z M17.26,49.15 L13.41,49.15 L13.41,37.7 L17.26,37.7 L17.26,49.15 Z M17.26,36.91 L13.41,36.91 L13.41,25.54 L17.26,25.54 L17.26,36.91 Z M17.26,24.75 L13.41,24.75 L13.41,12.91 L17.26,12.91 L17.26,24.75 Z M17.26,12.12 L13.41,12.12 L13.41,1 L17.26,1 L17.26,12.12 Z" id="Shape"  stroke-width="2"  fill-rule="nonzero" stroke-linecap="round"></path>
                <polygon id="Path"  stroke-width="0.79"  fill-rule="evenodd" points="37.6 13.12 37.6 21.82 28.96 21.82 28.96 27.22 37.6 27.22 37.6 35.91 43.01 35.91 43.01 27.22 51.66 27.22 51.66 21.82 43.01 21.82 43.01 13.12"></polygon>
                <path d="M71.5,6.56 L84,25" id="Line" stroke="#979797" stroke-width="4" stroke-linecap="square"></path>
                <path d="M71,43.425 L84,26" id="Line-2" stroke="#979797" stroke-width="4" stroke-linecap="square"></path>
            </g>
        </g>
    </g>
</svg>