<svg xmlns="http://www.w3.org/2000/svg" viewBox="0 0 68.2 52.01"><title>Asset 53</title><g id="Layer_2" data-name="Layer 2"><g id="Layer_1-2" data-name="Layer 1"><path class="cls-1" d="M56.81,26.34l10.39-.05v-.77l-10.43.05C56.78,25.82,56.8,26.08,56.81,26.34Z"/><path class="cls-1" d="M51.16,38.52l16-.08v-.77L52,37.74C51.73,38,51.45,38.27,51.16,38.52Z"/><path class="cls-1" d="M50.09,13.74l17.11-.08v-.78L48.86,13C49.28,13.21,49.69,13.46,50.09,13.74Z"/><path class="cls-1" d="M1,1.32v.77l6.2,0V13.17l-5.65,0V14l5.64,0V25.81l-5.65,0v.78l5.64,0V38L1.56,38v.77l5.64,0V50.21l-5.65,0V51l65.63-.31v-.77l-47.13.22V38.67l11.47-.06c-.3-.24-.58-.5-.87-.77l-10.6.06V26.52l5.69,0c0-.26,0-.52,0-.77l-5.72,0V13.88l12.29-.06c.4-.27.81-.53,1.23-.77l-13.52.06V2L67.2,1.78V1ZM18.26,50.15l-3.85,0V38.7l3.85,0Zm0-12.24H14.41V26.54h3.85Zm0-12.16-3.85,0V13.91l3.85,0Zm0-12.63-3.85,0V2l3.85,0Z"/><polygon class="cls-2" points="31.34 20.12 37.48 26.27 31.37 32.38 35.19 36.2 41.3 30.09 47.45 36.24 51.27 32.41 45.13 26.27 51.24 20.15 47.42 16.33 41.31 22.45 35.16 16.3 31.34 20.12"/></g></g></svg>