<svg xmlns="http://www.w3.org/2000/svg" viewBox="0 0 68.2 52.01"><title>Asset 59</title><g id="Layer_2" data-name="Layer 2"><g id="Layer_1-2" data-name="Layer 1"><circle class="cls-1" cx="37.73" cy="20.11" r="3.63"/><circle class="cls-1" cx="37.23" cy="32.93" r="3.63"/><path class="cls-2" d="M1,50.69,66.63,51v-.77l-5.64,0V38.73l5.63,0V38L61,38V26.58l5.63,0v-.77l-5.64,0V14l5.63,0V13.2l-5.64,0V2.06l6.19,0V1.32L1,1v.78L48.14,2V13.11L1,12.88v.78l47.14.22V25.75L1,25.52v.77l47.14.23V37.9L1,37.67v.77l47.14.23V50.14L1,49.92Zm48.94-12,3.85,0V50.17l-3.85,0Zm0-12.15h3.85V37.92H49.94Zm0-12.64,3.85,0V25.77l-3.85,0ZM49.94,2l3.85,0V13.14l-3.85,0Z"/></g></g></svg>