<svg xmlns="http://www.w3.org/2000/svg" viewBox="0 0 50.2 50"><defs><style>.cls-1{fill:#e4eaee;}</style></defs><title>Asset 83</title><g id="Layer_2" data-name="Layer 2"><g id="Layer_1-2" data-name="Layer 1"><path class="cls-1" d="M23.24,19.91a7.59,7.59,0,0,0,2.22,5.38,2.41,2.41,0,0,1,0,3.44,5.59,5.59,0,0,0-1.64,4v.74A4.62,4.62,0,0,0,28.43,38h.1a4.62,4.62,0,0,0,4.61-4.61H30.2a1.67,1.67,0,0,1-1.67,1.67h-.1a1.67,1.67,0,0,1-1.67-1.67v-.74a2.65,2.65,0,0,1,.78-1.88,5.36,5.36,0,0,0,0-7.6,4.63,4.63,0,0,1-1.36-3.3V17.23a3,3,0,0,1,2.89-3h.05a2.94,2.94,0,0,1,2.94,2.94H35a5.87,5.87,0,0,0-5.52-5.87,6.81,6.81,0,0,1,3.56-1,7,7,0,0,1,6.86,7,22.27,22.27,0,0,1-1.86,9l2.7,1.17a25.19,25.19,0,0,0,2.1-10.16,9.9,9.9,0,0,0-9.8-10,9.8,9.8,0,0,0-9.8,9.81h0v2.75Z"/><path class="cls-1" d="M33.05,0h0A17.16,17.16,0,0,0,15.88,17.16V25.1h2.94V17.16A14.22,14.22,0,0,1,33,2.94h0a14.31,14.31,0,0,1,14.2,14.37A29.67,29.67,0,0,1,38.5,38.44l-6.94,6.94a5.74,5.74,0,0,1-9.8-4.06v-2.5H18.82v2.5a8.68,8.68,0,0,0,14.82,6.14l6.94-6.94A32.82,32.82,0,0,0,50.2,17.31,17.26,17.26,0,0,0,33.05,0Z"/><circle class="cls-1" cx="1.96" cy="35.88" r="1.96"/><path class="cls-1" d="M7.51,30.34,5.43,32.42a4.91,4.91,0,0,1,0,6.93l2.08,2.08A7.86,7.86,0,0,0,7.51,30.34Z"/><path class="cls-1" d="M9.59,28.26a10.8,10.8,0,0,1,0,15.25l2.08,2.08a13.74,13.74,0,0,0,0-19.41Z"/></g></g></svg>