<svg xmlns="http://www.w3.org/2000/svg" viewBox="0 0 45.08 52.87"><defs><style>.cls-1{fill:#e4eaee;stroke:#e4eaee;stroke-miterlimit:10;stroke-width:2px;}</style></defs><title>Asset 55</title><g id="Layer_2" data-name="Layer 2"><g id="Layer_1-2" data-name="Layer 1"><path class="cls-1" d="M44.08,6.4A5.4,5.4,0,0,0,38.8,1H6.35A5.36,5.36,0,0,0,1,6.35V51L17.7,39.86,34.41,51V23h9.67ZM32.65,47.71l-14.95-10-14.94,10V6.35A3.59,3.59,0,0,1,6.35,2.76H34.5a6.18,6.18,0,0,0-1.72,3.17h0a5.58,5.58,0,0,0-.09.59c0,.2,0,.42,0,.63Zm9.67-26.49H34.41V7.16a4.24,4.24,0,0,1,.09-.88,4.42,4.42,0,0,1,3.27-3.39l.1,0a4.76,4.76,0,0,1,.66-.07,1.52,1.52,0,0,1,.21,0A3.65,3.65,0,0,1,42.32,6.4Z"/></g></g></svg>