<svg xmlns="http://www.w3.org/2000/svg" viewBox="0 0 59.26 50"><defs><style>.cls-1{fill:#e4eaee;}</style></defs><title>Asset 1</title><g id="Layer_2" data-name="Layer 2"><g id="Layer_1-2" data-name="Layer 1"><path class="cls-1" d="M31,49.41l14.49,0a1.14,1.14,0,0,0,.85-.4l12-13.6a1.49,1.49,0,0,0,.35-1L58.54,5.92c0-3-2.19-5.42-4.85-5.41L40.41.55a1.18,1.18,0,0,0-.85.4L35.27,5.8,29.2,3.55l-1-2.21A1.22,1.22,0,0,0,27.13.6L14.65.64a1.13,1.13,0,0,0-.72.27l-3,2.54L1.55,5.59a1.33,1.33,0,0,0-1,1.33L.75,44.08c0,3,2.19,5.42,4.86,5.41l8.45,0a1,1,0,0,0,.45-.1l11.31-5.13L30.11,49A1.11,1.11,0,0,0,31,49.41ZM54.55,35.77l-7.91,8.95,0-6.21A2.59,2.59,0,0,1,49,35.78ZM28.14,43l3.33-1.89A1.44,1.44,0,0,0,32,39.3a1.15,1.15,0,0,0-1.62-.6l-16.57,8-8.22,0a2.58,2.58,0,0,1-2.42-2.71L3,8l8.05-1.84,4.39,4.9a1.12,1.12,0,0,0,1.71,0,1.47,1.47,0,0,0,0-1.91L13.28,4.86l1.78-1.51,11.33,0,.88,2A1.29,1.29,0,0,0,28,6l5.4,2-3.43,3.88a1.49,1.49,0,0,0-.35,1,1.47,1.47,0,0,0,.36,1,1.12,1.12,0,0,0,1.71,0L40.92,3.26l12.78,0a2.59,2.59,0,0,1,2.43,2.71l.12,27.12-7.25,0c-2.66,0-4.82,2.45-4.8,5.44l0,8.14-12.78,0Z"/><path class="cls-1" d="M5.59,50a5.15,5.15,0,0,1-3.87-1.78A6.22,6.22,0,0,1,.16,44.08L0,6.93A1.83,1.83,0,0,1,1.4,5.1L10.63,3,13.51.55A1.76,1.76,0,0,1,14.65.13l12.47,0a1.82,1.82,0,0,1,1.64,1.07l.9,2,5.42,2,4-4.53A1.78,1.78,0,0,1,40.41,0L53.69,0h0a5.14,5.14,0,0,1,3.87,1.78,6.22,6.22,0,0,1,1.56,4.14l.13,28.47a2,2,0,0,1-.47,1.28l-12,13.6a1.75,1.75,0,0,1-1.32.6L31,49.92a1.82,1.82,0,0,1-1.32-.6l-4-4.44L14.78,49.82a1.75,1.75,0,0,1-.72.15L5.61,50ZM27.13,1.11h0l-12.48,0a.47.47,0,0,0-.31.13L11.23,3.91,1.7,6.08a.82.82,0,0,0-.52.84l.16,37.16A5.32,5.32,0,0,0,2.65,47.6,3.94,3.94,0,0,0,5.59,49h0l8.46,0a.35.35,0,0,0,.17,0L26,43.59l4.59,5.11a.53.53,0,0,0,.39.2h0l14.49,0a.53.53,0,0,0,.39-.2l12-13.6a1,1,0,0,0,.23-.65L58,5.92A5.37,5.37,0,0,0,56.65,2.4,4,4,0,0,0,53.7,1h0l-13.28,0a.57.57,0,0,0-.39.2L35.46,6.42,28.74,3.93l-1.08-2.4A.63.63,0,0,0,27.13,1.11ZM5.59,47.29a2.88,2.88,0,0,1-2.17-1,3.31,3.31,0,0,1-.84-2.22L2.42,7.63l8.86-2,4.63,5.17a.58.58,0,0,0,.39.19h0a.52.52,0,0,0,.39-.2,1,1,0,0,0,0-1.29L12.5,4.81l2.32-2,12,0,1,2.29a.74.74,0,0,0,.39.39L34.3,7.74l-3.89,4.41a1,1,0,0,0-.23.64,1,1,0,0,0,.24.65.52.52,0,0,0,.38.2h0a.52.52,0,0,0,.38-.2L40.63,2.76l13.07,0h0a2.88,2.88,0,0,1,2.17,1,3.41,3.41,0,0,1,.84,2.22l.12,27.64-7.83,0c-2.34,0-4.24,2.22-4.22,4.93l0,8.65-13.66,0-3.87-4.32,3.85-2.18a1,1,0,0,0,.31-1.21.7.7,0,0,0-.42-.41.43.43,0,0,0-.33.05L14,47.26l-8.37,0ZM3.6,8.42l.16,35.65a2.42,2.42,0,0,0,.59,1.61,1.67,1.67,0,0,0,1.24.59h0l8.07,0,16.43-8a1.71,1.71,0,0,1,1.3-.15,1.82,1.82,0,0,1,1.16,1,1.92,1.92,0,0,1-.76,2.43L29,43.13l2.74,3,11.9,0,0-7.62a5.69,5.69,0,0,1,5.39-6l6.66,0L55.54,5.93A2.42,2.42,0,0,0,55,4.32a1.67,1.67,0,0,0-1.25-.59l-12.49,0L32.13,14.06a1.78,1.78,0,0,1-1.32.6h0a1.77,1.77,0,0,1-1.31-.59A1.91,1.91,0,0,1,29,12.8a1.82,1.82,0,0,1,.47-1.27l3-3.37L27.74,6.42a1.8,1.8,0,0,1-1-1L26,3.82l-10.69,0L14.07,4.91l3.54,3.94a1.92,1.92,0,0,1,0,2.54,1.74,1.74,0,0,1-1.31.6h0A1.73,1.73,0,0,1,15,11.4L10.83,6.77Zm42.46,37.8,0-7.71a3.14,3.14,0,0,1,3-3.24l6.74,0Zm7.3-9.94L49,36.3a2.06,2.06,0,0,0-1.82,2.2l0,4.73Z"/><path class="cls-1" d="M33.2,37.39l-4.52-7.21-4.49,7.21h-6l7.49-10.86L19.14,16.32H24.8l3.88,6.34,3.83-6.34h5.66L31.64,26.53,39.2,37.39Z"/></g></g></svg>