<svg xmlns="http://www.w3.org/2000/svg" viewBox="0 0 53.66 51.05"><defs><style>.cls-1{fill:#e4eaee;stroke:#e4eaee;stroke-miterlimit:10;stroke-width:1.05px;}</style></defs><title>Asset 5</title><g id="Layer_2" data-name="Layer 2"><g id="Layer_1-2" data-name="Layer 1"><rect class="cls-1" x="10.69" y="24.9" width="13.86" height="2.1" transform="translate(-13.19 20.06) rotate(-45)"/><path class="cls-1" d="M53.13,13.53a9.41,9.41,0,0,0-2.76-6.68L46.81,3.29a9.44,9.44,0,0,0-13.36,0L30.63,6.11h0L4.76,32l.75.75a5.88,5.88,0,0,1,0,8.3l-.74.74.74.74L.74,47.26,4,50.52H8.79l2.36-2.36.74.74.74-.75a5.88,5.88,0,0,1,8.31,0h0l.74.75L49,21.55h0l1.34-1.34A9.39,9.39,0,0,0,53.13,13.53Zm-13,2.08h0l-4.46,4.45L33.6,18l5.93-5.93h0L41,10.56l2.07,2.08Zm-8-8,4.45,4.45L30.63,18l5,5.05,5.94-5.94,4.45,4.46L21.68,45.93l-.86-.87L7.73,32ZM8.35,49.46H4.44l-2.19-2.2,4-4,4.14,4.15Zm3.94-3.74L7.93,41.37a7.85,7.85,0,0,0,1.38-4.84l7.82,7.81A8,8,0,0,0,12.29,45.72ZM43.46,16l-.36-.36,3-3L41,7.59l-3,3L33.6,6.11l1.33-1.34a7.35,7.35,0,0,1,10.39,0l3.56,3.57a7.35,7.35,0,0,1,0,10.39l-1.33,1.33Z"/></g></g></svg>