<svg xmlns="http://www.w3.org/2000/svg" viewBox="0 0 68.98 50.96"><defs><style>.cls-1{fill:#e4eaee;stroke:#e4eaee;stroke-miterlimit:10;stroke-width:0.79px;}</style></defs><title>Asset 61</title><g id="Layer_2" data-name="Layer 2"><g id="Layer_1-2" data-name="Layer 1"><path class="cls-1" d="M56.4,25.9l10.19,0v-.77l-9.71.05A5.52,5.52,0,0,1,56.4,25.9Z"/><rect class="cls-1" x="36.75" y="18.67" width="10.39" height="1.57" transform="translate(-1.47 35.36) rotate(-45)"/><path class="cls-1" d="M37.1,36.12l.55.55.56-.55a4.41,4.41,0,0,1,6.23,0l.56.55L65.51,16.16h0l1-1a7.07,7.07,0,0,0,0-10L63.84,2.47a7,7,0,0,0-1.45-1.11l4.2,0V.57l-6.1,0a7.62,7.62,0,0,0-1.66-.2,7.05,7.05,0,0,0-1.72.22L.39.88v.77l6.2,0V12.74L1,12.76v.77l5.64,0V25.37L1,25.4v.77l5.64,0V37.52L1,37.55v.77l5.64,0V49.77L1,49.79v.78l65.63-.32v-.77l-47.13.22V38.23L66.59,38v-.77l-30.75.15ZM17.65,49.71l-3.85,0V38.26l3.85,0Zm0-12.24H13.8V26.11l3.85,0Zm0-12.15H13.8V13.47l3.85,0Zm0-12.64-3.85,0V1.59l3.85,0ZM35,37.09H32.07l-1.64-1.64,3-3,3.1,3.11Zm3-2.8L34.69,31a6,6,0,0,0,1-3.63l5.86,5.86A6,6,0,0,0,38,34.29Zm7,.16-.65-.65L34.53,24,52.82,5.7,56.16,9l-4.45,4.45,3.78,3.78L60,12.82l3.34,3.34ZM58.39,9,59.5,7.92l1.56,1.56-2.23,2.23h0l-3.34,3.34-1.56-1.56L58.39,9Zm7-2.79a5.53,5.53,0,0,1,0,7.8l-1,1L61.33,12l-.27-.27,2.23-2.23L59.5,5.7,57.27,7.92,53.93,4.58l1-1a5.52,5.52,0,0,1,7.79,0ZM19.46,1.56l35.76-.17a7.18,7.18,0,0,0-1.4,1.08L51.71,4.58h0l-8,8-24.28.11Zm0,11.88L43,13.33,32.31,24l.56.57a3.68,3.68,0,0,1,.56.69l-14,.07Zm0,12.64L33.84,26a4.42,4.42,0,0,1-1,4.76l-.55.56.55.55-3.57,3.57,1.95,1.95-11.78.06Z"/></g></g></svg>