<svg xmlns="http://www.w3.org/2000/svg" viewBox="0 0 60.94 53.92"><defs><style>.cls-1{fill:#e4eaee;}</style></defs><title>Asset 9</title><g id="Layer_2" data-name="Layer 2"><g id="Layer_1-2" data-name="Layer 1"><path class="cls-1" d="M22.32,8.74H22a2.7,2.7,0,0,0-2.69,2.69V33A2.7,2.7,0,0,0,22,35.67h.36l.32-.17C29.83,31.66,42.05,25.09,43,24.16a2.71,2.71,0,0,0,0-3.9Zm19,13.69h0Zm-.59-.18C39,23.37,30.36,28.08,22.17,32.45V12Z"/><path class="cls-1" d="M53.88,0H18.41a7.07,7.07,0,0,0-7.07,7.07V39.79H7.07a7.07,7.07,0,1,0,0,14.13H42.53a7.08,7.08,0,0,0,7.07-7.07V7.07A4.26,4.26,0,1,1,52.12,11a1.38,1.38,0,0,0-1.84.69A1.4,1.4,0,0,0,51,13.51,7.07,7.07,0,1,0,53.88,0Zm-17,51.13H7.07a4.28,4.28,0,0,1,0-8.56H36.92a7,7,0,0,0,0,8.56Zm5.61,0a4.28,4.28,0,1,1,4.28-4.28A4.28,4.28,0,0,1,42.53,51.13ZM46.81,7.07V41.24a7.08,7.08,0,0,0-4.28-1.45H14.13V7.07a4.27,4.27,0,0,1,4.28-4.28H48.26A7.08,7.08,0,0,0,46.81,7.07Z"/><path class="cls-1" d="M42.92,44a.72.72,0,1,1,0,1.43,1.46,1.46,0,0,0,0,2.91.72.72,0,1,1,0,1.43,2.89,2.89,0,0,1,0-5.77Z"/><path class="cls-1" d="M53.94,8.42a.72.72,0,1,0,0,1.43,2.89,2.89,0,1,0,0-5.78.72.72,0,1,0,0,1.44,1.46,1.46,0,0,1,0,2.91Z"/></g></g></svg>