<svg xmlns="http://www.w3.org/2000/svg" viewBox="0 0 56.52 50"><defs><style>.cls-1{fill:#e4eaee;}</style></defs><title>Asset 47</title><g id="Layer_2" data-name="Layer 2"><g id="Layer_1-2" data-name="Layer 1"><path class="cls-1" d="M50,0H17.07a6.55,6.55,0,0,0-6.55,6.55V36.9h-4a6.55,6.55,0,0,0,0,13.1H39.44A6.56,6.56,0,0,0,46,43.45V6.55a4,4,0,1,1,2.33,3.62,1.29,1.29,0,1,0-1.06,2.35A6.42,6.42,0,0,0,50,13.1,6.55,6.55,0,1,0,50,0ZM34.24,47.42H6.55a4,4,0,1,1,0-7.94H34.24a6.51,6.51,0,0,0,0,7.94Zm5.2,0a4,4,0,1,1,4-4A4,4,0,0,1,39.44,47.42Zm4-40.87V38.24a6.57,6.57,0,0,0-4-1.34H13.1V6.55a4,4,0,0,1,4-4H44.76A6.56,6.56,0,0,0,43.41,6.55Z"/><path class="cls-1" d="M39.68,40.77a.67.67,0,0,1,0,1.33,1.35,1.35,0,0,0,0,2.7.66.66,0,0,1,.66.66.67.67,0,0,1-.66.67,2.68,2.68,0,0,1,0-5.36Z"/><path class="cls-1" d="M50,7.8a.66.66,0,0,0-.66.67.65.65,0,0,0,.66.66,2.68,2.68,0,1,0,0-5.35.65.65,0,0,0-.66.66.66.66,0,0,0,.66.67A1.35,1.35,0,1,1,50,7.8Z"/><path class="cls-1" d="M35,27.39l-7.88-6.63-7.95,6.53L19.36,1l.09-.83.84,0L35.35.26l-.17,1.23c0,.1,0,.19,0,.29Zm-7.86-9,6,5.08.13-21.32L21.19,2l-.13,21.32Z"/></g></g></svg>