<svg xmlns="http://www.w3.org/2000/svg" viewBox="0 0 50.43 50"><defs><style>.cls-1{fill:#e4eaee;}</style></defs><title>Asset 7</title><g id="Layer_2" data-name="Layer 2"><g id="Layer_1-2" data-name="Layer 1"><path class="cls-1" d="M49.91,16.8,33.63.52A1.77,1.77,0,0,0,32.38,0a1.8,1.8,0,0,0-1.26.52l-4.8,4.81a1.73,1.73,0,0,0-.52,1.25,1.77,1.77,0,0,0,.52,1.26l.7.69-12,12L1.92,23.78A1.76,1.76,0,0,0,.64,25a1.78,1.78,0,0,0,.45,1.73l9.82,9.82L.52,47a1.77,1.77,0,0,0,0,2.51,1.77,1.77,0,0,0,2.51,0L13.42,39.09l9.82,9.82a1.79,1.79,0,0,0,1.74.45,1.77,1.77,0,0,0,1.24-1.28L29.45,35l12-12,1.13,1.13a1.77,1.77,0,0,0,2.51,0l4.8-4.81a1.76,1.76,0,0,0,0-2.51ZM23.53,44.17,5.83,26.47l9.53-2.35L25.88,34.64Zm4.32-12.59-9.43-9.43L29.53,11,39,20.48Zm16-11.23L30.08,6.58l2.3-2.29L46.15,18.06Z"/></g></g></svg>