<svg xmlns="http://www.w3.org/2000/svg" viewBox="0 0 50 50"><defs><style>.cls-1{fill:#e4eaee;}</style></defs><title>Asset 54</title><g id="Layer_2" data-name="Layer 2"><g id="Layer_1-2" data-name="Layer 1"><path class="cls-1" d="M25,14.13A10.79,10.79,0,1,0,35.78,24.92,10.8,10.8,0,0,0,25,14.13Zm0,18.76a8,8,0,1,1,8-8A8,8,0,0,1,25,32.89Z"/><path class="cls-1" d="M47.44,19.75l-3.51-.59a19.14,19.14,0,0,0-1.41-3.41l2.07-2.89a3.08,3.08,0,0,0-.33-4L41.14,5.77A3,3,0,0,0,39,4.86a3.1,3.1,0,0,0-1.79.57L34.27,7.5a19,19,0,0,0-3.53-1.45l-.59-3.47A3.08,3.08,0,0,0,27.1,0H22.71a3.08,3.08,0,0,0-3.05,2.58l-.61,3.55a19.79,19.79,0,0,0-3.39,1.43L12.78,5.49A3.07,3.07,0,0,0,11,4.92a3,3,0,0,0-2.18.91L5.68,8.94a3.1,3.1,0,0,0-.33,4l2.09,2.94a18.35,18.35,0,0,0-1.39,3.41l-3.47.59A3.08,3.08,0,0,0,0,22.91V27.3a3.08,3.08,0,0,0,2.58,3.05L6.13,31a19.79,19.79,0,0,0,1.43,3.39L5.5,37.22a3.07,3.07,0,0,0,.34,4L9,44.31a3.1,3.1,0,0,0,2.18.91,3,3,0,0,0,1.79-.58l2.94-2.09a18.63,18.63,0,0,0,3.3,1.36l.58,3.51A3.09,3.09,0,0,0,22.79,50H27.2a3.09,3.09,0,0,0,3.05-2.58l.59-3.51a19.91,19.91,0,0,0,3.41-1.41l2.89,2.07a3.1,3.1,0,0,0,1.8.57,3,3,0,0,0,2.18-.91l3.11-3.11a3.08,3.08,0,0,0,.34-4l-2.07-2.9a19,19,0,0,0,1.41-3.41l3.51-.58A3.09,3.09,0,0,0,50,27.2V22.8A3.06,3.06,0,0,0,47.44,19.75Zm-.23,7.45h0a.27.27,0,0,1-.23.27l-4.39.73a1.39,1.39,0,0,0-1.12,1,17.06,17.06,0,0,1-1.82,4.37,1.43,1.43,0,0,0,.06,1.54l2.58,3.63a.3.3,0,0,1,0,.36l-3.11,3.11a.29.29,0,0,1-.2.08.28.28,0,0,1-.16,0L35.16,39.7a1.43,1.43,0,0,0-1.54-.06,17.06,17.06,0,0,1-4.37,1.82,1.38,1.38,0,0,0-1,1.12L27.47,47a.27.27,0,0,1-.27.23H22.8a.27.27,0,0,1-.27-.23l-.73-4.39a1.39,1.39,0,0,0-1-1.12,17.72,17.72,0,0,1-4.28-1.76,1.51,1.51,0,0,0-.71-.19,1.42,1.42,0,0,0-.81.26l-3.66,2.6a.25.25,0,0,1-.16.06.25.25,0,0,1-.19-.09L7.83,39.23a.29.29,0,0,1,0-.35l2.57-3.61a1.39,1.39,0,0,0,.06-1.54A16.46,16.46,0,0,1,8.6,29.36a1.44,1.44,0,0,0-1.13-1l-4.42-.76a.26.26,0,0,1-.23-.27V22.91a.28.28,0,0,1,.23-.28l4.36-.73a1.39,1.39,0,0,0,1.13-1,17,17,0,0,1,1.79-4.39A1.4,1.4,0,0,0,10.26,15l-2.6-3.66a.26.26,0,0,1,0-.35L10.8,7.82a.27.27,0,0,1,.2-.08.3.3,0,0,1,.16,0l3.6,2.57a1.39,1.39,0,0,0,1.54.06,16.46,16.46,0,0,1,4.37-1.83,1.44,1.44,0,0,0,1-1.13L22.46,3a.26.26,0,0,1,.27-.23h4.4A.27.27,0,0,1,27.4,3l.73,4.36a1.39,1.39,0,0,0,1,1.13,17.2,17.2,0,0,1,4.48,1.84,1.43,1.43,0,0,0,1.54-.06l3.6-2.59a.33.33,0,0,1,.16,0,.3.3,0,0,1,.2.08l3.11,3.11a.3.3,0,0,1,0,.36l-2.58,3.62a1.43,1.43,0,0,0-.06,1.54,17.06,17.06,0,0,1,1.82,4.37,1.38,1.38,0,0,0,1.12,1l4.39.74a.27.27,0,0,1,.23.27Z"/></g></g></svg>