<svg xmlns="http://www.w3.org/2000/svg" viewBox="0 0 20.04 34"><title>Asset 39</title><g id="Layer_2" data-name="Layer 2"><g id="Layer_1-2" data-name="Layer 1"><path class="cls-1" d="M7.87,3.47A5.6,5.6,0,1,0,3.32,13.7,5.46,5.46,0,0,0,6.87,14a5.19,5.19,0,0,0,.56,0,20.69,20.69,0,0,0,5-1.52,5.18,5.18,0,0,0,.81-.46L5.4,32.28a1.26,1.26,0,0,0,.72,1.63,1.2,1.2,0,0,0,.45.09,1.26,1.26,0,0,0,1.18-.81L20,1.72A1.26,1.26,0,0,0,19.23.09,1.25,1.25,0,0,0,17.6.81L15.8,5.45a11.2,11.2,0,0,0-.7,1.12c-.93,1.67-2.24,3.17-2.92,3.33a1.62,1.62,0,0,1-1.11-.21A5.6,5.6,0,0,0,7.87,3.47Z"/></g></g></svg>