<?xml version="1.0" encoding="UTF-8"?>
<svg width="29px" height="43px" viewBox="0 0 29 43" version="1.1" xmlns="http://www.w3.org/2000/svg" xmlns:xlink="http://www.w3.org/1999/xlink">
    <!-- Generator: Sketch 52.6 (67491) - http://www.bohemiancoding.com/sketch -->
    <title>eighthNote</title>
    <desc>Created with Sketch.</desc>
    <g id="Page-1" stroke="none" stroke-width="1" fill="black" fill-rule="evenodd">
        <g id="eighthNote">
            <path d="M5.36,31.79 C1.36,33.68 -0.91,37.39 0.36,40.09 C1.63,42.79 5.91,43.45 9.94,41.57 C13.53,39.89 15.7,36.75 15.23,34.18 L15.23,9.92 C15.94,10.12 17.15,10.49 18.31,10.85 C20.2844439,11.6503555 22.010212,12.9619394 23.31,14.65 C24.689546,16.6095177 25.7056978,18.8010184 26.31,21.12 C26.7460335,23.179654 26.9074361,25.2879751 26.79,27.39 C26.62,28.89 26.61,30.1 26.79,30.08 C27.4341608,27.927634 27.9056553,25.7273266 28.2,23.5 C28.83,19.9 28.33,15.06 27.11,12.75 C25.6576927,10.2332015 23.4647666,8.22534728 20.83,7 C18.440453,5.97613728 16.4989259,4.12689482 15.36,1.79 C15.36,1.67 15.26,1.56 15.22,1.45 L15.22,0.85 C15.2145222,0.378944956 14.8310869,-3.18484743e-05 14.36,0 C13.890558,6.45136996e-17 13.51,0.380557963 13.51,0.85 L13.51,31.66 C11.58,30.4 8.4,30.37 5.36,31.79 Z" id="Path"></path>
        </g>
    </g>
</svg>