<svg xmlns="http://www.w3.org/2000/svg" viewBox="0 0 16.05 43.81"><title>Asset 37</title><g id="Layer_2" data-name="Layer 2"><g id="Layer_1-2" data-name="Layer 1"><path class="cls-1" d="M10.7,31.14c-.2,0-1.83-.63-3.62-1.36S3,28.91,1.91,29.44A4,4,0,0,0,0,32.75C0,34,1.57,36.68,3.49,38.64l4.14,4.22a4.08,4.08,0,0,0,1.42.91.63.63,0,0,0,.87-.42,2.45,2.45,0,0,0-.63-1.52L7.16,39.34A5.4,5.4,0,0,1,5.94,36a2.8,2.8,0,0,1,1.74-2.26,8.08,8.08,0,0,1,4.32.63,17.64,17.64,0,0,0,3.4,1.13.67.67,0,0,0,.65-.68c0-.38-1.85-3.36-4.11-6.64S9.25,20.52,11,18.5s3.39-3.94,3.65-4.27a1.6,1.6,0,0,0,.18-1.39A59,59,0,0,0,9.31,6.75L3.32.67A2.13,2.13,0,0,0,1.75,0,1.32,1.32,0,0,0,.81,1.09,2.61,2.61,0,0,0,1.35,2.9l3.21,4C6,8.64,5.65,12,3.91,14.39A58.25,58.25,0,0,0,.6,19.19a1.13,1.13,0,0,0,.16.86c.16.22,2.5,2.68,5.19,5.48s5,5.21,5,5.36S10.9,31.16,10.7,31.14Z"/></g></g></svg>