<svg xmlns="http://www.w3.org/2000/svg" viewBox="0 0 28.43 50"><title>Asset 29</title><g id="Layer_2" data-name="Layer 2"><g id="Layer_1-2" data-name="Layer 1"><path class="cls-1" d="M14.36,0a.85.85,0,0,0-.85.85V39c-1.93-1.26-5.11-1.29-8.15.13-4,1.89-6.27,5.6-5,8.3s5.55,3.36,9.58,1.47c3.59-1.68,5.76-4.82,5.29-7.39V20.64c.71.2,1.91.56,3.08.92a12.17,12.17,0,0,1,5,3.8,20.45,20.45,0,0,1,3,6.47,23.92,23.92,0,0,1,.48,6.28c-.17,1.5-.18,2.71,0,2.69a43.63,43.63,0,0,0,1.41-6.59,22.52,22.52,0,0,0-.32-8.6c.11-.57.22-1.17.32-1.79.63-3.6.13-8.44-1.09-10.75a14.18,14.18,0,0,0-6.24-5.75,10.79,10.79,0,0,1-5.47-5.21l-.14-.34V.85A.86.86,0,0,0,14.36,0ZM18.3,11.17a12,12,0,0,1,5,3.8,20.25,20.25,0,0,1,3,6.47c.07.33.14.7.2,1.08a14.11,14.11,0,0,0-5.66-4.8,10.85,10.85,0,0,1-5.47-5.22l-.14-.33V10.24C15.93,10.44,17.13,10.81,18.3,11.17Z"/></g></g></svg>