<svg xmlns="http://www.w3.org/2000/svg" viewBox="0 0 48.6 35"><defs><style>.cls-1{fill:#e4eaee;}</style></defs><title>Asset 11</title><g id="Layer_2" data-name="Layer 2"><g id="Layer_1-2" data-name="Layer 1"><path class="cls-1" d="M24.7,35a2.34,2.34,0,0,1-1-.25,2.29,2.29,0,0,1-1.26-2V21.37L3.63,34.57a2.37,2.37,0,0,1-2.37.18A2.34,2.34,0,0,1,0,32.69V2.31A2.31,2.31,0,0,1,3.62.42L22.4,13.63V2.3A2.31,2.31,0,0,1,26,.41l21.6,15.21a2.28,2.28,0,0,1,1,1.88,2.31,2.31,0,0,1-1,1.88L26,34.58A2.28,2.28,0,0,1,24.7,35Zm-.4-2.87h0Zm1.1-16.54V31.35L45.08,17.5,25.4,3.65ZM3,3.66V31.34L22.68,17.5ZM45.9,18.08Z"/></g></g></svg>