<svg xmlns="http://www.w3.org/2000/svg" viewBox="0 0 39.8 50"><defs><style>.cls-1{fill:#e4eaee;}</style></defs><title>Asset 67</title><g id="Layer_2" data-name="Layer 2"><g id="Layer_1-2" data-name="Layer 1"><path class="cls-1" d="M39.23,6.66l-1.79-1,.84-1.51a1.12,1.12,0,0,0-2-1.09l-.84,1.52-1.79-1a1.11,1.11,0,0,0-.94-.07,1.14,1.14,0,0,0-.66.68l-2.2,6.39a1.11,1.11,0,0,0,.51,1.33l.76.42-3.68,6.61L24.29,2.72A3.47,3.47,0,0,0,21,0H12.06A3.48,3.48,0,0,0,8.74,2.72l-6.5,33h0L.05,46.84a2.71,2.71,0,0,0,.53,2.22A2.65,2.65,0,0,0,2.65,50H30.39A2.58,2.58,0,0,0,33,46.84l-2.19-11.1h0L28.15,22.33l5-8.91.75.42a1.17,1.17,0,0,0,.54.14,1.11,1.11,0,0,0,.87-.41l4.27-5.23a1.11,1.11,0,0,0,.23-.91A1.1,1.1,0,0,0,39.23,6.66Zm-28.3-3.5a1.24,1.24,0,0,1,1.13-.93H21a1.26,1.26,0,0,1,1.13.93L25.81,22,21,30.56a11.16,11.16,0,0,0-3.39-.85V27.33h1.75a1.12,1.12,0,0,0,0-2.23H17.63V18.54h1.75a1.12,1.12,0,0,0,0-2.23H17.63V9.75h1.75a1.12,1.12,0,0,0,0-2.23H17.63v-2a1.12,1.12,0,0,0-2.23,0v2H13.66a1.12,1.12,0,1,0,0,2.23H15.4v6.56H13.66a1.12,1.12,0,1,0,0,2.23H15.4V25.1H13.66a1.12,1.12,0,1,0,0,2.23H15.4v2.38a13.59,13.59,0,0,0-6.93,3,11.4,11.4,0,0,1-3.75,2ZM30.79,47.28a.42.42,0,0,1-.06.36.4.4,0,0,1-.34.13H2.65a.42.42,0,0,1-.35-.13.42.42,0,0,1-.06-.36L4.26,37a11.84,11.84,0,0,0,5.49-2.52c1.92-1.35,3.73-2.62,6.77-2.62s4.85,1.27,6.77,2.62A11.75,11.75,0,0,0,28.78,37Zm-2.47-12.6a11.3,11.3,0,0,1-3.75-2c-.51-.35-1-.72-1.59-1.07l3.5-6.27Zm5.82-23.24-1.83-1,1.47-4.25L37,8Z"/><rect class="cls-1" x="10.84" y="39.46" width="11.96" height="3.75"/></g></g></svg>