<svg xmlns="http://www.w3.org/2000/svg" viewBox="0 0 50.89 50.39"><defs><style>.cls-1,.cls-2{fill:#e4eaee;}.cls-2{stroke:#e4eaee;stroke-miterlimit:10;stroke-width:0.79px;}</style></defs><title>Asset 45</title><g id="Layer_2" data-name="Layer 2"><g id="Layer_1-2" data-name="Layer 1"><path class="cls-1" d="M10.52,19.15a.63.63,0,0,0-.62.63V42.35c-1.41-.93-3.75-1-6,.09C1,43.83-.67,46.55.26,48.53s4.07,2.46,7,1.08c2.63-1.24,4.21-3.54,3.87-5.42V19.78A.63.63,0,0,0,10.52,19.15Z"/><rect class="cls-2" x="18.66" y="18.67" width="10.39" height="1.57" transform="translate(-6.78 22.57) rotate(-45)"/><path class="cls-2" d="M50.49,10.15a7,7,0,0,0-2.07-5L45.75,2.47a7.07,7.07,0,0,0-10,0L33.61,4.58h0L14.21,24l.57.57a4.41,4.41,0,0,1,0,6.22l-.56.56.55.55L11.2,35.45l2.44,2.44h3.59L19,36.12l.56.55.55-.55a4.42,4.42,0,0,1,6.24,0h0l.55.55L47.42,16.16h0l1-1A7,7,0,0,0,50.49,10.15Zm-9.75,1.56h0L37.4,15.05l-1.56-1.56L40.29,9h0L41.4,7.92,43,9.48Zm-6-6L38.06,9l-4.45,4.45,3.79,3.78,4.45-4.45,3.34,3.34L26.9,34.45l-.65-.65L16.44,24ZM16.9,37.09H14l-1.64-1.64,3-3,3.11,3.11Zm3-2.8L16.59,31a6,6,0,0,0,1-3.63l5.86,5.86A6,6,0,0,0,19.86,34.29ZM43.24,12,43,11.71l2.23-2.23L41.41,5.7,39.18,7.92,35.84,4.58l1-1a5.52,5.52,0,0,1,7.79,0L47.3,6.25a5.5,5.5,0,0,1,0,7.8l-1,1Z"/></g></g></svg>