<svg xmlns="http://www.w3.org/2000/svg" viewBox="0 0 66.8 83.74"><defs><style>.cls-1{fill:#e4eaee;}</style></defs><title>Asset 87</title><g id="Layer_2" data-name="Layer 2"><g id="Layer_1-2" data-name="Layer 1"><path class="cls-1" d="M35.66,35.84l3.51-3.4-.7-.72-3.6,3.5a6.73,6.73,0,0,0-1.38-.78,7.55,7.55,0,0,1-3.83-3.65l-.11-.24v-.42a.6.6,0,1,0-1.19,0V41.55l-4,3.9.7.72,3.32-3.23v8.79c-1.35-.88-3.59-.9-5.72.09-2.82,1.32-4.39,3.93-3.51,5.82s3.89,2.35,6.72,1c2.52-1.18,4-3.37,3.7-5.18V41.78l3.84-3.73a8.81,8.81,0,0,1,1.84,1.75,14,14,0,0,1,2.08,4.54,16.09,16.09,0,0,1,.34,4.4,4.35,4.35,0,0,0,0,1.88,30.47,30.47,0,0,0,1-4.61,14,14,0,0,0-.77-7.54A9.88,9.88,0,0,0,35.66,35.84Zm-6.11,4.54V36.49l2.17.65a4.53,4.53,0,0,1,.8.36Z"/><path class="cls-1" d="M56.27,42.41,66.8,36.72,65.34,34l-9.07,4.89V19.83a.76.76,0,0,0-.77-.77.74.74,0,0,0-.56.26H13.47a.75.75,0,0,0-.57-.26.76.76,0,0,0-.76.77V59.19c-1.73-1.13-4.6-1.15-7.33.12C1.2,61-.82,64.34.32,66.77s5,3,8.6,1.33c3.23-1.52,5.17-4.33,4.75-6.65v-36H54.74V39.75L39.08,48.2l1.45,2.7,14.21-7.67v16c-1.73-1.13-4.6-1.15-7.33.12-3.62,1.7-5.63,5-4.5,7.46s5,3,8.61,1.33c3.23-1.52,5.17-4.33,4.75-6.64Z"/><polygon class="cls-1" points="62.05 6.43 47.05 0 47.05 3.01 58.06 7.7 47.05 12.4 47.05 15.41 62.05 8.97 62.05 6.43"/><polygon class="cls-1" points="20.24 6.43 5.25 0 5.25 3.01 16.26 7.7 5.25 12.4 5.25 15.41 20.24 8.97 20.24 6.43"/><polygon class="cls-1" points="6.76 74.87 4.49 74.87 4.49 83.75 10.64 83.75 10.64 81.75 6.76 81.75 6.76 74.87"/><path class="cls-1" d="M55,77.93a3.05,3.05,0,0,0-1.09-2.42,4.23,4.23,0,0,0-2.74-.64h-2.8v8.87h2.17V80.88h0l2.05,2.86h2.59l-2.41-3A2.67,2.67,0,0,0,55,77.93Zm-3.66,1.4h-.8V76.86h.83c.78,0,1.46.32,1.46,1.2S52.18,79.33,51.33,79.33Z"/></g></g></svg>