<svg xmlns="http://www.w3.org/2000/svg" viewBox="0 0 56.52 50"><defs><style>.cls-1{fill:#e4eaee;}</style></defs><title>Asset 81</title><g id="Layer_2" data-name="Layer 2"><g id="Layer_1-2" data-name="Layer 1"><rect class="cls-1" x="20.42" y="7.63" width="5.1" height="24.69"/><rect class="cls-1" x="31.1" y="7.63" width="5.1" height="24.69"/><path class="cls-1" d="M50,0H17.07a6.55,6.55,0,0,0-6.55,6.55V36.9h-4a6.55,6.55,0,0,0,0,13.1H39.44A6.56,6.56,0,0,0,46,43.45V6.55a4,4,0,1,1,2.33,3.62,1.29,1.29,0,1,0-1.06,2.35A6.42,6.42,0,0,0,50,13.1,6.55,6.55,0,1,0,50,0ZM34.24,47.42H6.55a4,4,0,1,1,0-7.94H34.24a6.51,6.51,0,0,0,0,7.94Zm5.2,0a4,4,0,1,1,4-4A4,4,0,0,1,39.44,47.42Zm4-40.87V38.24a6.57,6.57,0,0,0-4-1.34H13.1V6.55a4,4,0,0,1,4-4H44.76A6.56,6.56,0,0,0,43.41,6.55Z"/><path class="cls-1" d="M39.68,42.1a.67.67,0,0,0,0-1.33,2.68,2.68,0,0,0,0,5.36.67.67,0,0,0,.66-.67.66.66,0,0,0-.66-.66,1.35,1.35,0,0,1,0-2.7Z"/><path class="cls-1" d="M50,7.8a.66.66,0,0,0-.66.67.65.65,0,0,0,.66.66,2.68,2.68,0,1,0,0-5.35.65.65,0,0,0-.66.66.66.66,0,0,0,.66.67A1.35,1.35,0,1,1,50,7.8Z"/></g></g></svg>