<svg xmlns="http://www.w3.org/2000/svg" viewBox="0 0 50 50"><defs><style>.cls-1{fill:#e4eaee;}</style></defs><title>Asset 79</title><g id="Layer_2" data-name="Layer 2"><g id="Layer_1-2" data-name="Layer 1"><path class="cls-1" d="M49.41,38.57,37.69,29.78A1.47,1.47,0,0,0,35.35,31v4.39H27.93A4.4,4.4,0,0,1,23.53,31V19a4.4,4.4,0,0,1,4.4-4.39h7.42V19a1.47,1.47,0,0,0,2.34,1.18l11.72-8.79a1.47,1.47,0,0,0,0-2.35L37.69.29a1.47,1.47,0,0,0-2.34,1.18V5.86H27.93a13.18,13.18,0,0,0-6.58,1.76,13.43,13.43,0,0,0-3.81,3.31,13.12,13.12,0,0,0-7.19-2.14h-6a4.4,4.4,0,0,0,0,8.79h6A4.4,4.4,0,0,1,14.75,22V28a4.4,4.4,0,0,1-4.4,4.39h-6a4.4,4.4,0,0,0,0,8.79h6a13.17,13.17,0,0,0,7.19-2.14,13.2,13.2,0,0,0,10.39,5.07h7.42v4.39a1.47,1.47,0,0,0,2.34,1.18l11.72-8.79A1.47,1.47,0,0,0,49.41,38.57ZM28,8.35h8.89a1.46,1.46,0,0,0,1.46-1.46V4l7.81,5.86-7.81,5.86V12.75a1.46,1.46,0,0,0-1.46-1.47H28a7.34,7.34,0,0,0-6.25,3.51,13.43,13.43,0,0,0-1.87-2.43A10.3,10.3,0,0,1,28,8.35ZM10.42,37.84H4.47a1.47,1.47,0,1,1,0-2.93h6a7.27,7.27,0,0,0,4.68-1.69,12.47,12.47,0,0,0,1,2.91A10.23,10.23,0,0,1,10.42,37.84Zm27.93,7.33V42.24a1.46,1.46,0,0,0-1.46-1.47H28A10.26,10.26,0,0,1,17.75,30.52v-9a7.34,7.34,0,0,0-7.33-7.32H4.47a1.47,1.47,0,1,1,0-2.93h6A10.27,10.27,0,0,1,20.68,21.53v9A7.32,7.32,0,0,0,28,37.84h8.89a1.46,1.46,0,0,0,1.46-1.46V33.45l7.81,5.86Z"/></g></g></svg>