<svg xmlns="http://www.w3.org/2000/svg" viewBox="0 0 42.53 50"><defs><style>.cls-1{fill:#e4eaee;}</style></defs><title>Asset 17</title><g id="Layer_2" data-name="Layer 2"><g id="Layer_1-2" data-name="Layer 1"><path class="cls-1" d="M21.08,26.94h.34a9.53,9.53,0,0,0,7.29-3.16C32.7,19.29,32,11.59,32,10.85c-.26-5.52-2.87-8.16-5-9.39A11.47,11.47,0,0,0,21.37,0H21.2a11.55,11.55,0,0,0-5.57,1.42c-2.18,1.23-4.83,3.87-5.09,9.43-.07.74-.73,8.44,3.25,12.93a9.53,9.53,0,0,0,7.29,3.16ZM13.31,11.11s0-.06,0-.08c.34-7.43,5.61-8.22,7.87-8.22h.12c2.8.06,7.55,1.2,7.87,8.22a.19.19,0,0,0,0,.08c0,.07.74,7.11-2.56,10.82a6.81,6.81,0,0,1-5.33,2.22h-.1a6.78,6.78,0,0,1-5.32-2.22c-3.29-3.69-2.58-10.76-2.57-10.82Z"/><path class="cls-1" d="M42.53,39.72v0c0-.09,0-.17,0-.26-.07-2-.2-6.85-4.69-8.38l-.11,0a29.85,29.85,0,0,1-8.59-3.91,1.4,1.4,0,1,0-1.61,2.29A32.4,32.4,0,0,0,37,33.71c2.41.86,2.68,3.44,2.75,5.8a2.17,2.17,0,0,0,0,.26,18.42,18.42,0,0,1-.22,3.2c-1.67,1-8.25,4.24-18.25,4.24A38.33,38.33,0,0,1,3,43a17.49,17.49,0,0,1-.22-3.2c0-.08,0-.17,0-.26.07-2.36.34-4.94,2.75-5.8A32.28,32.28,0,0,0,15,29.38,1.4,1.4,0,1,0,13.4,27.1,29.54,29.54,0,0,1,4.81,31L4.7,31C.21,32.58.08,37.38,0,39.42a2.26,2.26,0,0,1,0,.26v0A15.86,15.86,0,0,0,.53,44.4a1.28,1.28,0,0,0,.54.65c.31.21,7.75,5,20.21,5s19.9-4.75,20.21-5A1.33,1.33,0,0,0,42,44.4a16.61,16.61,0,0,0,.5-4.68Z"/></g></g></svg>