<svg xmlns="http://www.w3.org/2000/svg" viewBox="0 0 26.27 50"><title>Asset 41</title><g id="Layer_2" data-name="Layer 2"><g id="Layer_1-2" data-name="Layer 1"><path class="cls-1" d="M7.87,19.89A5.59,5.59,0,1,0,3.32,30.11a5.53,5.53,0,0,0,3.55.32,5.15,5.15,0,0,0,.56,0,20.69,20.69,0,0,0,5-1.52,5.37,5.37,0,0,0,.73-.4L5.54,48.29a1.26,1.26,0,0,0,.72,1.63,1.42,1.42,0,0,0,.45.08,1.26,1.26,0,0,0,1.18-.81L26.19,1.71a1.26,1.26,0,1,0-2.35-.9L22.06,5.42a11.65,11.65,0,0,0-.72,1.14c-.93,1.68-2.25,3.18-2.92,3.34a1.62,1.62,0,0,1-1.11-.21,5.59,5.59,0,1,0-7.75,4,5.46,5.46,0,0,0,3.55.31,5.28,5.28,0,0,0,.56,0,20.5,20.5,0,0,0,5-1.52,6.29,6.29,0,0,0,.86-.48L15.62,22.14a8.55,8.55,0,0,0-.52.84c-.93,1.67-2.24,3.17-2.92,3.33a1.62,1.62,0,0,1-1.11-.2A5.58,5.58,0,0,0,7.87,19.89Z"/></g></g></svg>