<svg xmlns="http://www.w3.org/2000/svg" viewBox="0 0 28.43 50"><title>Asset 31</title><g id="Layer_2" data-name="Layer 2"><g id="Layer_1-2" data-name="Layer 1"><path class="cls-1" d="M14.36,0a.85.85,0,0,0-.85.85V39c-1.93-1.26-5.11-1.29-8.16.13-4,1.89-6.26,5.6-5,8.3s5.55,3.36,9.58,1.47c3.59-1.68,5.75-4.81,5.29-7.38V25.9c.71.18,1.92.48,3.08.79a12,12,0,0,1,5,3.2,16,16,0,0,1,3,5.45,16.74,16.74,0,0,1,.47,5.29c-.16,1.26-.17,2.28,0,2.26a31.72,31.72,0,0,0,1.41-5.54,16.07,16.07,0,0,0-.32-7.25c.11-.48.22-1,.32-1.51a16.07,16.07,0,0,0-.32-7.25c.11-.48.22-1,.32-1.51.62-3,.13-7.12-1.1-9.06a13.42,13.42,0,0,0-6.23-4.84,10.33,10.33,0,0,1-5.47-4.4c0-.1-.1-.17-.14-.25V.85A.86.86,0,0,0,14.36,0Zm6.47,23.44a10.27,10.27,0,0,1-5.47-4.39c0-.1-.1-.17-.14-.26V17.14l3.08.78a12.08,12.08,0,0,1,5,3.21,16,16,0,0,1,3,5.45c.07.28.13.59.2.91A13.86,13.86,0,0,0,20.83,23.44ZM18.3,9.17a12,12,0,0,1,5,3.2,16,16,0,0,1,3,5.45c.07.28.13.59.2.91a13.74,13.74,0,0,0-5.66-4,10.33,10.33,0,0,1-5.47-4.4c0-.1-.1-.17-.14-.25V8.38C15.93,8.56,17.14,8.86,18.3,9.17Z"/></g></g></svg>