<svg xmlns="http://www.w3.org/2000/svg" viewBox="0 0 25.82 50"><title>Asset 43</title><g id="Layer_2" data-name="Layer 2"><g id="Layer_1-2" data-name="Layer 1"><path class="cls-1" d="M6.25,28.83A4.44,4.44,0,1,0,2.64,37a4.37,4.37,0,0,0,2.82.25H5.9a16.3,16.3,0,0,0,4-1.21,4.23,4.23,0,0,0,.64-.36l-5,13a1,1,0,0,0,.57,1.29.92.92,0,0,0,.36.07,1,1,0,0,0,.93-.64l18.35-48A1,1,0,0,0,23.89.64L22.51,4.26a8.14,8.14,0,0,0-.61,1c-.74,1.34-1.78,2.53-2.32,2.65a1.24,1.24,0,0,1-.88-.16,4.44,4.44,0,1,0-6.15,3.18,4.35,4.35,0,0,0,2.81.25h.45a16.3,16.3,0,0,0,4-1.21,4.43,4.43,0,0,0,.71-.41l-3,7.88a9.23,9.23,0,0,0-.55.87,6.28,6.28,0,0,1-2.31,2.65,1.35,1.35,0,0,1-.88-.16,4.47,4.47,0,1,0-3.34,3.43,3.17,3.17,0,0,0,.44,0,16.21,16.21,0,0,0,4-1.2,4.35,4.35,0,0,0,.68-.39l-3,8a8.42,8.42,0,0,0-.49.77c-.74,1.34-1.78,2.53-2.32,2.65a1.21,1.21,0,0,1-.87-.16A4.45,4.45,0,0,0,6.25,28.83Z"/></g></g></svg>