<svg xmlns="http://www.w3.org/2000/svg" viewBox="0 0 68.2 52.01"><title>Asset 57</title><g id="Layer_2" data-name="Layer 2"><g id="Layer_1-2" data-name="Layer 1"><circle class="cls-1" cx="30.47" cy="20.11" r="3.63"/><circle class="cls-1" cx="30.97" cy="32.93" r="3.63"/><path class="cls-2" d="M67.2,49.92l-47.13.22V38.67l47.13-.23v-.77l-47.13.23V26.52l47.13-.23v-.77l-47.13.23V13.88l47.13-.22v-.78l-47.13.23V2L67.2,1.78V1L1,1.32v.77l6.2,0V13.17l-5.65,0V14l5.64,0V25.81l-5.65,0v.77l5.64,0V38L1.56,38v.77l5.64,0V50.21l-5.65,0V51l65.63-.31Zm-48.94.23-3.85,0V38.7l3.85,0Zm0-12.24H14.41V26.54h3.85Zm0-12.16-3.85,0V13.91l3.85,0Zm0-12.63-3.85,0V2l3.85,0Z"/></g></g></svg>