<svg xmlns="http://www.w3.org/2000/svg" viewBox="0 0 80.94 52.01"><title>Asset 55</title><g id="Layer_2" data-name="Layer 2"><g id="Layer_1-2" data-name="Layer 1"><line class="cls-1" x1="1.01" y1="1.76" x2="79.38" y2="1.39"/><rect class="cls-1" x="1.01" y="1.19" width="78.37" height="0.77" transform="translate(-0.01 0.18) rotate(-0.25)"/><line class="cls-1" x1="1.57" y1="13.63" x2="79.94" y2="13.26"/><rect class="cls-1" x="1.56" y="13.06" width="78.37" height="0.77" transform="translate(-0.06 0.18) rotate(-0.25)"/><line class="cls-1" x1="1.57" y1="26.25" x2="79.94" y2="25.88"/><rect class="cls-1" x="1.56" y="25.68" width="78.37" height="0.77" transform="translate(-0.11 0.18) rotate(-0.25)"/><line class="cls-1" x1="1.57" y1="38.39" x2="79.94" y2="38.01"/><rect class="cls-1" x="1.56" y="37.81" width="78.37" height="0.77" transform="translate(-0.17 0.18) rotate(-0.25)"/><line class="cls-1" x1="1.57" y1="50.62" x2="79.94" y2="50.25"/><rect class="cls-1" x="1.56" y="50.05" width="78.37" height="0.77" transform="translate(-0.22 0.18) rotate(-0.25)"/><circle class="cls-2" cx="27.27" cy="19.34" r="3.63"/><circle class="cls-2" cx="27.27" cy="32.16" r="3.63"/><circle class="cls-2" cx="52.63" cy="19.34" r="3.63"/><circle class="cls-2" cx="52.63" cy="32.16" r="3.63"/><rect class="cls-1" x="18.25" y="1.39" width="1.8" height="49.15"/><rect class="cls-1" x="7.2" y="1.39" width="7.19" height="49.15"/><rect class="cls-1" x="59.62" y="1.39" width="1.8" height="49.15" transform="translate(121.03 51.93) rotate(-180)"/><rect class="cls-1" x="65.27" y="1.39" width="7.19" height="49.15" transform="translate(137.73 51.93) rotate(-180)"/></g></g></svg>