<svg xmlns="http://www.w3.org/2000/svg" viewBox="0 0 66.8 50"><title>Asset 77</title><g id="Layer_2" data-name="Layer 2"><g id="Layer_1-2" data-name="Layer 1"><path class="cls-1" d="M35.66,16.78l3.51-3.4-.7-.72-3.6,3.5a6.73,6.73,0,0,0-1.38-.78,7.55,7.55,0,0,1-3.83-3.65l-.11-.24v-.42a.6.6,0,1,0-1.19,0V22.49l-4,3.9.7.72,3.32-3.23v8.79c-1.35-.88-3.59-.9-5.72.09-2.82,1.32-4.39,3.93-3.51,5.82s3.89,2.35,6.72,1c2.52-1.17,4-3.37,3.7-5.18V22.72L33.39,19a9.07,9.07,0,0,1,1.84,1.75,14,14,0,0,1,2.08,4.54,16.09,16.09,0,0,1,.34,4.4,4.35,4.35,0,0,0,0,1.88,30.47,30.47,0,0,0,1-4.61,14,14,0,0,0-.77-7.54A9.88,9.88,0,0,0,35.66,16.78Zm-6.11,4.54V17.43l2.17.65a4.53,4.53,0,0,1,.8.36Z"/><path class="cls-1" d="M56.27,23.35,66.8,17.66,65.34,15l-9.07,4.89V.77A.76.76,0,0,0,55.5,0a.74.74,0,0,0-.56.26H13.47A.75.75,0,0,0,12.9,0a.76.76,0,0,0-.76.77V40.13C10.41,39,7.54,39,4.81,40.26,1.2,42-.82,45.28.32,47.71s5,3,8.6,1.33c3.23-1.51,5.17-4.33,4.75-6.65V6.4H54.74V20.69L39.08,29.14l1.45,2.7,14.21-7.66v16C53,39,50.14,39,47.41,40.26c-3.62,1.69-5.63,5-4.5,7.45s5,3,8.61,1.33c3.23-1.51,5.17-4.33,4.75-6.64Z"/></g></g></svg>