<svg xmlns="http://www.w3.org/2000/svg" viewBox="0 0 55.55 50"><title>Asset 75</title><g id="Layer_2" data-name="Layer 2"><g id="Layer_1-2" data-name="Layer 1"><path class="cls-1" d="M45,23.35l10.53-5.69L54.09,15,45,19.86V.77A.76.76,0,0,0,44.25,0a.74.74,0,0,0-.56.26H13.47A.75.75,0,0,0,12.9,0a.76.76,0,0,0-.76.77V40.13C10.41,39,7.54,39,4.81,40.26,1.2,42-.82,45.28.32,47.71s5,3,8.6,1.33c3.23-1.51,5.17-4.33,4.75-6.65V6.4H43.49V20.69L27.83,29.14l1.45,2.7,14.21-7.66v16c-1.73-1.13-4.6-1.15-7.33.13-3.62,1.69-5.63,5-4.5,7.45s5,3,8.61,1.33c3.23-1.51,5.17-4.33,4.75-6.64Z"/></g></g></svg>