<svg xmlns="http://www.w3.org/2000/svg" viewBox="0 0 39.33 49.55"><title>Asset 93</title><g id="Layer_2" data-name="Layer 2"><g id="Layer_1-2" data-name="Layer 1"><path class="cls-1" d="M39.28,26.79V.67A.67.67,0,0,0,38.11.23H11.75A.64.64,0,0,0,11.26,0a.67.67,0,0,0-.67.67V24.82c-1.51-1-4-1-6.39.1C1,26.4-.71,29.31.28,31.43s4.35,2.63,7.5,1.15c2.82-1.31,4.52-3.77,4.15-5.79V5.58h26V24.82c-1.51-1-4-1-6.39.1-3.16,1.48-4.92,4.39-3.93,6.51s4.35,2.63,7.51,1.15C38,31.27,39.64,28.81,39.28,26.79Z"/><path class="cls-1" d="M38.73,43.73a3.08,3.08,0,0,0-1.09-2.42,4.28,4.28,0,0,0-2.73-.64H32.1v8.88h2.17V46.68h0l2.05,2.87h2.59l-2.41-3A2.68,2.68,0,0,0,38.73,43.73Zm-3.66,1.41h-.8V42.67h.83c.78,0,1.46.32,1.46,1.19S35.92,45.14,35.07,45.14Z"/></g></g></svg>